P2
10 10
255
214 127 127 127 82 127 127 127 127 127 
127 214 127 127 127 127 127 127 127 127 
127 127 214 127 127 127 127 127 127 127 
127 127 127 214 127 127 127 127 127 127 
255 127 127 127 214 127 127 127 127 127 
127 127 127 127 127 214 127 127 127 127 
127 127 127 127 127 127 127 127 127 127 
127 127 127 127 127 127 127 127 127 127 
127 127 127 127 127 127 127 127 127 127 
127 127 127 127 127 127 127 127 127 127 
