P2
10 10
255
214 127 127 127 127 127 127 127 127 82 
127 127 127 127 127 127 127 127 127 127 
127 127 127 127 127 127 127 127 127 127 
127 127 127 127 127 127 127 127 127 127 
127 127 127 127 127 127 127 127 127 127 
127 127 127 127 127 127 127 127 127 127 
127 127 127 127 127 127 127 127 127 127 
127 127 127 127 127 127 127 127 127 127 
127 127 127 127 127 127 127 127 127 127 
148 127 127 127 127 127 127 127 127 127 
